<svg width="16" height="16" viewBox="0 0 16 16" fill="none" xmlns="http://www.w3.org/2000/svg">
<path d="M8 4.5C8.33152 4.5 8.64946 4.3683 8.88388 4.13388C9.1183 3.89946 9.25 3.58152 9.25 3.25C9.25 2.91848 9.1183 2.60054 8.88388 2.36612C8.64946 2.1317 8.33152 2 8 2C7.66848 2 7.35054 2.1317 7.11612 2.36612C6.8817 2.60054 6.75 2.91848 6.75 3.25C6.75 3.58152 6.8817 3.89946 7.11612 4.13388C7.35054 4.3683 7.66848 4.5 8 4.5Z" fill="white"/>
<path d="M8 4.5C8.597 4.5 9.13 4.882 9.32 5.449L9.407 5.709C9.41834 5.74226 9.42155 5.77775 9.41636 5.8125C9.41117 5.84725 9.39773 5.88026 9.37717 5.90875C9.35661 5.93724 9.32952 5.9604 9.29818 5.97627C9.26683 5.99215 9.23214 6.00028 9.197 6H6.807C6.77202 5.99984 6.73756 5.99142 6.70645 5.97542C6.67534 5.95941 6.64846 5.93628 6.62798 5.90791C6.60751 5.87955 6.59403 5.84674 6.58865 5.81217C6.58326 5.7776 6.58613 5.74225 6.597 5.709L6.684 5.449C6.77657 5.17229 6.95388 4.93173 7.19079 4.7614C7.42771 4.59107 7.71221 4.49962 8.004 4.5H8ZM5 8.5C5 8.36739 5.05268 8.24022 5.14645 8.14645C5.24021 8.05268 5.36739 8 5.5 8H10.5C10.6326 8 10.7598 8.05268 10.8536 8.14645C10.9473 8.24022 11 8.36739 11 8.5C11 8.63261 10.9473 8.75979 10.8536 8.85355C10.7598 8.94732 10.6326 9 10.5 9H5.5C5.36739 9 5.24021 8.94732 5.14645 8.85355C5.05268 8.75979 5 8.63261 5 8.5ZM5 10.5C5 10.3674 5.05268 10.2402 5.14645 10.1464C5.24021 10.0527 5.36739 10 5.5 10H10.5C10.6326 10 10.7598 10.0527 10.8536 10.1464C10.9473 10.2402 11 10.3674 11 10.5C11 10.6326 10.9473 10.7598 10.8536 10.8536C10.7598 10.9473 10.6326 11 10.5 11H5.5C5.36739 11 5.24021 10.9473 5.14645 10.8536C5.05268 10.7598 5 10.6326 5 10.5ZM5.5 12C5.36739 12 5.24021 12.0527 5.14645 12.1464C5.05268 12.2402 5 12.3674 5 12.5C5 12.6326 5.05268 12.7598 5.14645 12.8536C5.24021 12.9473 5.36739 13 5.5 13H7.5C7.63261 13 7.75979 12.9473 7.85355 12.8536C7.94732 12.7598 8 12.6326 8 12.5C8 12.3674 7.94732 12.2402 7.85355 12.1464C7.75979 12.0527 7.63261 12 7.5 12H5.5Z" fill="white"/>
<path fill-rule="evenodd" clip-rule="evenodd" d="M2.33091 1.63993C2.00391 2.28193 2.00391 3.11993 2.00391 4.79993V11.1999C2.00391 12.8799 2.00391 13.7199 2.33091 14.3599C2.61954 14.9231 3.07778 15.3813 3.64091 15.6699C4.28291 15.9969 5.12091 15.9969 6.80091 15.9969H9.20091C10.8809 15.9969 11.7209 15.9969 12.3609 15.6699C12.9248 15.3824 13.3834 14.9239 13.6709 14.3599C13.9979 13.7179 13.9979 12.8799 13.9979 11.1999V4.79993C13.9979 3.11993 13.9979 2.27993 13.6709 1.63993C13.3834 1.07599 12.9248 0.617455 12.3609 0.32993C11.7189 0.00292972 10.8809 0.00292969 9.20091 0.00292969H6.80091C5.12091 0.00292969 4.28091 0.00292972 3.64091 0.32993C3.07778 0.618568 2.61954 1.0768 2.33091 1.63993ZM9.20091 1.00193H6.80091C5.94391 1.00193 5.36091 1.00193 4.91091 1.03993C4.47291 1.07493 4.24791 1.13993 4.09191 1.21993C3.7156 1.41167 3.40965 1.71762 3.21791 2.09393C3.13791 2.24993 3.07291 2.47393 3.03791 2.91293C3.00091 3.36293 2.99991 3.94293 2.99991 4.80293V11.2029C2.99991 12.0599 3.00091 12.6429 3.03791 13.0929C3.07391 13.5309 3.13891 13.7559 3.21791 13.9119C3.40991 14.2879 3.71591 14.5939 4.09191 14.7859C4.24791 14.8659 4.47291 14.9309 4.91091 14.9659C5.36091 15.0019 5.94091 15.0029 6.80091 15.0029H9.20091C10.0579 15.0029 10.6409 15.0029 11.0909 14.9659C11.5289 14.9299 11.7539 14.8649 11.9099 14.7859C12.2859 14.5939 12.5919 14.2879 12.7839 13.9119C12.8639 13.7559 12.9289 13.5309 12.9639 13.0919C13.0009 12.6419 13.0019 12.0619 13.0019 11.2019V4.80193C13.0019 3.94593 13.0009 3.36193 12.9639 2.91193C12.9279 2.47493 12.8629 2.24993 12.7839 2.09393C12.5922 1.71762 12.2862 1.41167 11.9099 1.21993C11.7539 1.13993 11.5289 1.07493 11.0909 1.03993C10.6409 1.00293 10.0609 1.00193 9.20091 1.00193Z" fill="white"/>
</svg>
